<?xml version="1.0" encoding="UTF-8"?>
<svg xmlns="http://www.w3.org/2000/svg" width="128.08380126953125" height="128.46115112304688" viewBox="-1.2989280492092803E-5 -2.8421709430404007E-13 128.08380126953125 128.46115112304688" preserveAspectRatio="none">
  <g>
    <defs>
      <path id="s-Union_1-d1224" d="M50.09813154196945 -2.8421709430404007E-13 C39.60081708884445 -2.8421709430404007E-13 27.60862958884445 7.389221191405966 15.703844432594451 23.66024780273409 C-0.40803300881179894 45.68136596679659 -0.8328376963117989 64.70730590820284 0.45640790915695106 69.90875244140597 C9.518724803688201 63.631958007812216 10.184130077125701 45.639648437499716 36.5666984365007 36.847229003905966 C62.9492667958757 28.054809570312216 73.1069816396257 9.518676757812216 60.5973380849382 2.702606201171591 C57.3308585927507 0.9228210449215908 53.80784833884445 -2.8421709430404007E-13 50.09813154196945 -2.8421709430404007E-13 Z M88.8918937490007 15.41567993164034 C89.79661787009445 26.40225219726534 105.0457023427507 35.974670410155966 99.4689201161882 63.218872070312216 C94.74620283103195 86.29034423828097 101.89268720603195 102.77899169921847 111.5759757802507 102.77899169921847 C113.3273185536882 102.77899169921847 115.16160810446945 102.23962402343722 117.02366865134445 101.10232543945284 C129.1813224599382 93.67672729492159 132.3354972646257 76.70846557617159 121.32054365134445 51.74459838867159 C110.30565107321945 26.780761718749716 94.04112470603195 16.89987182617159 88.8918937490007 15.41567993164034 Z M15.541490916969451 89.06573486328097 C8.353746776344451 89.06573486328097 3.675463084938201 92.72348022460909 3.842577342750701 99.48703002929659 C4.194506053688201 113.72869873046847 17.31236494040695 124.94439697265597 44.4391349599382 127.88714599609347 C48.0988029286882 128.2841491699216 51.56846845603195 128.4611511230466 54.8423332021257 128.4611511230466 C75.83555829978195 128.4611511230466 88.7760490224382 121.18328857421847 92.1152824208757 117.96755981445284 C82.1482414052507 113.25778198242159 66.23375165915695 121.67767333984347 45.42796552634445 103.22592163085909 C34.50316083884445 93.53713989257784 23.48851240134445 89.06573486328097 15.541490916969451 89.06573486328097 Z "/>
    </defs>
    <g style="mix-blend-mode:normal">
      <use xmlns:xlink="http://www.w3.org/1999/xlink" xlink:href="#s-Union_1-d1224" fill="#2A6D69" fill-opacity="1.0"/>
    </g>
  </g>
</svg>
