<?xml version="1.0" encoding="UTF-8"?>
<svg xmlns="http://www.w3.org/2000/svg" width="100.0" height="100.00003051757812" viewBox="4.369126820336078E-6 -1.2448201523795888E-5 100.0 100.00003051757812" preserveAspectRatio="none">
  <g>
    <defs>
      <path id="s-Path_1-d1224" d="M27.5868304920445 23.175900112046577 C24.611343080852635 25.503708083486515 19.389655326707413 37.59091559924724 17.542717291730327 41.17303700968142 C7.768240377158321 60.12814870142023 -11.917007765039585 86.19260086415983 9.85904331592738 98.14671905184383 C19.482739335344235 103.42956501974896 39.03746395361895 98.08815416361614 35.26640151564311 73.40481032113718 C33.251757831245925 60.22068261871601 30.799644433857566 34.43807415442785 27.5868304920445 23.175901508342406 Z M89.47010018912857 57.443827322376535 C87.23492664485752 51.20930175986854 82.41570634351507 43.67697931534536 79.23802335678528 37.56690350080697 C74.57907191293725 28.608086196404145 63.915680101597786 5.905698531832684 56.5649810866027 1.8866845512191617 C48.872332093908256 -2.319738502926441 39.660078238497135 1.1890302979792864 35.59463402372421 5.750942533143586 C31.67343202524711 10.151508297195676 28.796413938515627 20.589821754648312 32.272709432075885 28.54469052841199 C35.435775613366786 35.781407383326666 40.94235687628117 37.77978799075146 48.412553227894364 40.88709483405677 C60.148465060168064 45.76862480090409 78.22076571846867 54.60753136582747 89.47010080050569 57.44382836959841 Z M31.453800889816705 97.52871156041152 C47.20451167465205 97.9943024158228 66.89219309799637 98.58741836064797 82.43532543697893 97.64540210366891 C98.8636524426347 96.6496525345512 105.73572383338933 77.30698716925411 94.44100133282393 64.11114733787343 C81.6691121045904 49.18925274737006 68.43321205755518 64.56473240587007 60.390535571958935 71.38446738837814 L31.453802112571054 97.52871226946792 Z "/>
    </defs>
    <g style="mix-blend-mode:normal">
      <use xmlns:xlink="http://www.w3.org/1999/xlink" xlink:href="#s-Path_1-d1224" fill="#2A6D69" fill-opacity="1.0" fill-rule="evenodd"/>
    </g>
  </g>
</svg>
