<?xml version="1.0" encoding="UTF-8"?>
<svg xmlns="http://www.w3.org/2000/svg" width="231.6483764648438" height="68.542236328125" viewBox="13.491302490234318 15.741302490234375 231.6483764648438 68.542236328125" preserveAspectRatio="none">
  <g>
    <defs>
      <path id="s-Path_1-d1224" d="M35.00738525390619 31.570526123046875 C32.68668532371515 33.16042613983154 28.614085197448674 41.41602611541748 27.173585414886418 43.86262607574463 C19.550085544586125 56.80902576446533 4.196784496307316 74.61112689971924 21.180785179138127 82.7758264541626 C28.686685085296574 86.38402652740479 43.93818569183344 82.73582645505667 40.99698543548578 65.87702655792236 C39.425685405731144 56.87222671508789 37.513185501098576 39.2626256942749 35.00738525390619 31.57052707672119 Z M83.27258682250971 54.97562599182129 C81.52928686141962 50.71742582321167 77.7705869674682 45.57282638549805 75.29218673706049 41.39962577819824 C71.65848684310907 35.280725955963135 63.341687202453556 19.774925231933594 57.60858726501459 17.029926300048828 C51.60878705978388 14.156926393508911 44.42378711700434 16.553426295518875 41.25298690795893 19.66922640800476 C38.19468688964838 22.6748263835907 35.95078706741327 29.804226636886597 38.66208696365351 35.23742651939392 C41.1290869712829 40.180126428604126 45.4238867759704 41.545026540756226 51.25018739700312 43.66732668876648 C60.40348768234247 47.001426696777344 74.49878740310663 53.038427114486694 83.27258729934687 54.975626707077026 Z M38.02338790893549 82.35372543334961 C50.307988166809025 82.67172542214394 65.66318702697748 83.07682543992996 77.78588867187494 82.43342543393373 C90.59898853301996 81.75332541018724 95.95878791809076 68.54222536832094 87.14958858489985 59.529426105320454 C77.18828868865961 49.337726123631 66.86508846282953 59.839226104319096 60.59228801727289 64.49712610989809 L38.023388862609806 82.35372591763735 Z "/>
    </defs>
    <g style="mix-blend-mode:normal">
      <use xmlns:xlink="http://www.w3.org/1999/xlink" xlink:href="#s-Path_1-d1224" fill="#2A6D69" fill-opacity="1.0" fill-rule="evenodd"/>
    </g>
  </g>
  <g>
    <defs>
      <path id="s-Path_2-d1224" d="M103.87167358398438 83.18142700195312 L103.87167358398438 17.415428161621094 L126.52847290039062 17.415428161621094 C131.6415729522705 17.415428161621094 135.54517269134521 17.72152817249298 138.2394733428955 18.349428176879883 C142.00527334213257 19.22192817926407 145.220073223114 20.798828125 147.88377380371094 23.06432819366455 C151.3590738773346 26.003528118133545 153.94627380371094 29.739027976989746 155.66067361831665 34.300827980041504 C157.39067363739014 38.86292791366577 158.247873544693 44.08312797546387 158.247873544693 49.94632816314697 C158.247873544693 54.93702793121338 157.666173517704 59.36102771759033 156.50257349014282 63.21902847290039 C155.33917343616486 67.0767285823822 153.83907341957092 70.27612829208374 152.0172734260559 72.80212879180908 C150.1801733970642 75.32802867889404 148.1899733543396 77.31822872161865 146.01637363433838 78.75712871551514 C143.85777354240417 80.21162867546082 141.23997354507446 81.31372880935669 138.17827367782593 82.0640287399292 C135.1012737751007 82.8140287399292 131.5803737640381 83.18142879009247 127.59997320175171 83.18142879009247 L103.87167310714722 83.18142879009247 Z M112.59757328033447 75.46582698822021 L126.62027359008789 75.46582698822021 C130.9524736404419 75.46582698822021 134.3508734703064 75.06782698631287 136.815673828125 74.25652694702148 C139.2803738117218 73.44532692432404 141.23997402191162 72.31232690811157 142.70967388153076 70.84282684326172 C144.76087379455566 68.77602672576904 146.3683738708496 65.98992681503296 147.5164737701416 62.499627113342285 C148.66477382183075 59.00902700424194 149.24637377262115 54.78392696380615 149.24637377262115 49.808627128601074 C149.24637377262115 42.91982698440552 148.1133737564087 37.623026847839355 145.86327373981476 33.91812705993652 C143.61287367343903 30.213526964187622 140.87257397174835 27.733527183532715 137.64247334003448 26.47832727432251 C135.3155733346939 25.574927270412445 131.56477320194244 25.131027221679688 126.39067375659943 25.131027221679688 L112.59757339954376 25.131027221679688 L112.59757339954376 75.46582794189453 Z M171.67357349395752 83.18142700195312 L171.67357349395752 17.415428161621094 L180.39947319030762 17.415428161621094 L180.39947319030762 83.18142700195312 L171.67357349395752 83.18142700195312 Z M192.8761739730835 62.05542755126953 L201.05067443847656 61.32062757015228 C201.4336744248867 64.62722766399384 202.33677446842194 67.3369277715683 203.76037454605103 69.46482789516449 C205.1841745376587 71.57752788066864 207.38867449760437 73.29192793369293 210.37387466430664 74.6086276769638 C213.3589746952057 75.90972769260406 216.72687482833862 76.56822764873505 220.46207427978516 76.56822764873505 C223.7842743396759 76.56822764873505 226.7081742286682 76.07812765240669 229.24947452545166 75.083127617836 C231.79077458381653 74.08822762966156 233.6734743118286 72.72552764415741 234.91367435455322 70.99582779407501 C236.15357434749603 69.26592779159546 236.7810744047165 67.38282787799835 236.7810744047165 65.36232769489288 C236.7810744047165 63.31082761287689 236.1841744184494 61.51962769031525 234.99017441272736 59.97362768650055 C233.79597437381744 58.44262766838074 231.82137429714203 57.15682756900787 229.06577455997467 56.10032761096954 C227.3051745891571 55.42682760953903 223.40127432346344 54.35532760620117 217.35447466373444 52.900927662849426 C211.3075748682022 51.44672763347626 207.08257448673248 50.08412754535675 204.6637750864029 48.798327565193176 C201.5254751443863 47.14482760429382 199.19857513904572 45.093427538871765 197.6675750017166 42.65932762622833 C196.12157499790192 40.22552764415741 195.3558748960495 37.48522770404816 195.3558748960495 34.46922791004181 C195.3558748960495 31.131927847862244 196.30517488718033 28.024327874183655 198.18797481060028 25.1463280916214 C200.07107484340668 22.25302803516388 202.8112748861313 20.063828110694885 206.43937480449677 18.563727974891663 C210.05237472057343 17.06332802772522 214.07847487926483 16.31332790851593 218.50277507305145 16.31332790851593 C223.3706749677658 16.31332790851593 227.67257487773895 17.093927919864655 231.39247500896454 18.670827984809875 C235.11267507076263 20.23222804069519 237.97537505626678 22.543827891349792 239.98057544231415 25.605527997016907 C241.98607552051544 28.651928067207336 243.05787551403046 32.11192810535431 243.21097552776337 35.96952831745148 L234.85247600078583 36.612428307533264 C234.40827599167824 32.46392834186554 232.8928760290146 29.32572853565216 230.30567586421967 27.21302855014801 C227.71847593784332 25.085128664970398 223.89137589931488 24.028928637504578 218.83947598934174 24.028928637504578 C213.57327592372894 24.028928637504578 209.7309764623642 24.99322861433029 207.3274759054184 26.922228693962097 C204.92397582530975 28.85092866420746 203.7143758535385 31.177928805351257 203.7143758535385 33.9028285741806 C203.7143758535385 36.26042854785919 204.5718758702278 38.20472848415375 206.27097594738007 39.73542869091034 C207.9550759792328 41.25112867355347 212.31817615032196 42.827728629112244 219.39057624340057 44.41992890834808 C226.4632762670517 46.02742886543274 231.315976023674 47.42042887210846 233.94907653331757 48.61462867259979 C237.7610765695572 50.37492871284485 240.59317672252655 52.59472858905792 242.41467654705048 55.304428458213806 C244.2364765405655 57.99872839450836 245.13967645168304 61.10632836818695 245.13967645168304 64.627228140831 C245.13967645168304 68.13312804698944 244.14467644691467 71.40912806987762 242.13917648792267 74.50142800807953 C240.13397657871246 77.59382808208466 237.2709766626358 79.9973281621933 233.52047646045685 81.71172797679901 C229.76987636089325 83.42632794380188 225.55987656116486 84.28352797031403 220.86037647724152 84.28352797031403 C214.92037642002106 84.28352797031403 209.94527637958527 83.41102796792984 205.9341765642166 81.681028008461 C201.90817654132843 79.95132803916931 198.76997673511505 77.348827958107 196.48887646198273 73.85862791538239 C194.19257652759552 70.38332784175873 192.99857652187347 66.44912779331207 192.87617647647858 62.05542814731598 Z "/>
    </defs>
    <g style="mix-blend-mode:normal">
      <use xmlns:xlink="http://www.w3.org/1999/xlink" xlink:href="#s-Path_2-d1224" fill="#151611" fill-opacity="1.0" fill-rule="evenodd"/>
    </g>
  </g>
</svg>
