<svg xmlns="http://www.w3.org/2000/svg" xmlns:xlink="http://www.w3.org/1999/xlink" xml:space="preserve" width="150mm" height="84mm" version="1.1" style="shape-rendering:geometricPrecision; text-rendering:geometricPrecision; image-rendering:optimizeQuality; fill-rule:evenodd; clip-rule:evenodd" viewBox="0 0 15000 8400">
 <defs>
  <style type="text/css">
    .str1 {stroke:#FFED00;stroke-width:7.62}
    .str0 {stroke:#1C1B17;stroke-width:7.62}
    .fil4 {fill:#FEFEFE}
    .fil3 {fill:#FEFEFE}
    .fil1 {fill:#E31E24}
    .fil2 {fill:#1FA959}
    .fil0 {fill:#05382E}
    .fil5 {fill:#2B2A29;fill-rule:nonzero}
  </style>
 </defs>
    <g id="Слой_x0020_1">
  <metadata id="CorelCorpID_0Corel-Layer"/>
        <g id="_841476896">
   <rect class="fil0" x="7510" y="-19" width="7480" height="8437"/>
            <rect class="fil1" x="10" y="-19" width="7480" height="8437"/>
            <g>
    <path class="fil2" d="M8211 3889c0,-259 -378,-470 -844,-470 -466,0 -843,211 -843,470 0,519 755,940 1687,940 931,0 1687,-421 1687,-940 0,-778 -1133,-1409 -2531,-1409 -1398,0 -2531,631 -2531,1409 0,1038 1511,1880 3375,1880 1863,0 3374,-842 3374,-1880 0,-1297 -1888,-2349 -4218,-2349 -2329,0 -4218,1052 -4218,2349 0,1557 2266,2819 5062,2819 2795,0 5061,-1262 5061,-2819l-5061 0zm4672 -1175c-850,-1236 -2999,-2113 -5516,-2113 -3261,0 -5905,1472 -5905,3288 0,2076 3022,3759 6749,3759 3727,0 6748,-1683 6748,-3759l-2076 -1175zm-223 0l223 0 2076 0 0 1175 -1687 0 -612 0 0 -7 0 -1168z"/>
   </g>
            <rect class="fil3" y="2704" width="15000" height="2459"/>
            <g id="_841478752">
    <path class="fil4 str0" d="M718 4179l0 613 -452 0 0 -1663 740 0c134,0 270,31 363,134 94,103 121,244 121,379 0,143 -32,287 -132,395 -103,111 -255,142 -401,142l-239 0zm1858 340l-496 0 -72 273 -460 0 542 -1663 490 0 539 1663 -471 0 -72 -273zm1793 -459c36,14 77,33 105,57 26,21 53,61 72,88 21,31 47,68 62,103l217 484 -508 0 -238 -507c-17,-37 -47,-100 -79,-126 -31,-25 -66,-38 -106,-38l-35 0 0 671 -452 0 0 -1663 742 0c98,0 221,6 314,41 77,29 135,83 177,153 50,81 67,176 67,270 0,83 -14,166 -51,240 -34,66 -80,121 -141,164 -43,29 -96,49 -146,63zm1622 459l-496 0 -72 273 -460 0 542 -1663 490 0 539 1663 -472 0 -71 -273zm831 -1390l661 0c105,0 222,13 316,62 82,41 148,100 200,176 55,80 91,171 113,266 25,106 36,214 36,322 0,130 -8,288 -53,412 -32,91 -79,176 -146,247 -56,59 -122,108 -201,132 -85,27 -175,46 -265,46l-661 0 0 -1663zm1719 0l452 0 0 1663 -452 0 0 -1663zm1928 1213l0 -149 -296 0 0 -352 692 0 0 709 -2 2c-102,81 -224,165 -348,211 -113,42 -239,56 -359,56 -144,0 -294,-24 -418,-101 -115,-72 -196,-177 -251,-300 -64,-144 -88,-301 -88,-458 0,-162 26,-325 97,-472 63,-132 157,-235 285,-306 115,-64 263,-80 393,-80 110,0 254,6 356,50 80,33 146,85 197,155 58,78 95,172 118,266l1 4 -434 90 -1 -4c-15,-55 -42,-106 -88,-142 -45,-36 -101,-49 -158,-49 -96,0 -172,38 -229,115 -72,98 -86,250 -86,367 0,119 13,283 87,381 60,79 142,114 241,114 48,0 94,-8 140,-24 52,-20 105,-51 151,-83zm1608 -220l220 -993 588 0 0 1663 -370 0 0 -1231 -273 1231 -334 0 -272 -1231 0 1231 -369 0 0 -1663 590 0 220 993zm2115 397l-496 0 -72 273 -460 0 542 -1663 490 0 539 1663 -471 0 -72 -273zm-13474 -682l105 0c58,0 135,-8 178,-51 36,-35 51,-79 51,-129 0,-49 -13,-92 -44,-130 -38,-45 -113,-53 -167,-53l-123 0 0 363zm1762 316l-151 -576 -152 576 303 0zm1379 -351l183 0c33,0 85,-15 117,-23 30,-7 52,-25 69,-50 19,-29 27,-60 27,-94 0,-45 -10,-89 -42,-121 -38,-37 -113,-42 -163,-42l-191 0 0 330zm2036 351l-152 -576 -152 576 304 0zm1377 -642l0 896 104 0c58,0 146,-4 197,-35 44,-27 72,-74 90,-122 30,-79 33,-201 33,-286 0,-103 -8,-271 -73,-357 -58,-76 -154,-96 -245,-96l-106 0zm6824 642l-151 -576 -152 576 303 0z"/>
   </g>
            <path class="fil5 str1" d="M270 3133l736 0c160,0 280,44 360,132 80,88 120,214 120,377 0,167 -43,298 -131,392 -87,94 -220,141 -398,141l-243 0 0 613 -444 0 0 -1655zm444 707l109 0c86,0 146,-17 181,-51 35,-35 52,-79 52,-132 0,-52 -15,-96 -45,-132 -30,-36 -87,-54 -170,-54l-127 0 0 369zm1865 675l-502 0 -72 273 -451 0 539 -1655 484 0 537 1655 -463 0 -72 -273zm-94 -358l-156 -595 -157 595 313 0zm926 631l0 -1655 738 0c136,0 241,14 313,41 72,27 131,77 175,151 44,73 66,163 66,268 0,92 -17,171 -51,238 -33,67 -80,121 -140,163 -37,26 -89,48 -155,65 53,20 91,41 115,61 16,13 40,43 71,87 30,44 51,79 61,103l215 478 -500 0 -236 -505c-30,-65 -57,-108 -80,-127 -32,-26 -69,-38 -109,-38l-39 0 0 670 -444 0zm444 -982l187 0c20,0 60,-8 118,-23 29,-7 53,-24 71,-52 19,-28 28,-60 28,-96 0,-54 -14,-95 -44,-124 -29,-29 -84,-43 -165,-43l-195 0 0 338zm2139 709l-502 0 -72 273 -452 0 539 -1655 485 0 537 1655 -464 0 -71 -273zm-94 -358l-157 -595 -157 595 314 0zm926 -1024l657 0c130,0 235,21 315,61 79,41 145,99 198,175 52,76 89,164 113,265 23,101 35,208 35,321 0,176 -17,314 -52,411 -35,97 -83,179 -145,245 -62,66 -129,110 -200,132 -97,30 -185,45 -264,45l-657 0 0 -1655zm442 375l0 903 108 0c93,0 159,-12 199,-35 39,-24 69,-65 92,-124 22,-60 33,-155 33,-288 0,-175 -25,-295 -74,-359 -50,-65 -132,-97 -248,-97l-110 0zm1277 -375l444 0 0 1655 -444 0 0 -1655zm1632 1056l0 -344 684 0 0 704c-131,103 -247,173 -347,211 -101,37 -220,56 -358,56 -170,0 -309,-34 -416,-101 -107,-67 -190,-166 -249,-299 -59,-132 -88,-284 -88,-456 0,-180 32,-337 96,-471 65,-133 159,-234 283,-303 97,-54 228,-81 392,-81 158,0 277,17 355,50 79,33 144,84 195,154 52,70 91,158 117,265l-426 88c-18,-62 -47,-111 -89,-144 -42,-33 -96,-50 -161,-50 -97,0 -174,39 -232,117 -58,78 -86,201 -86,369 0,179 29,307 87,384 58,76 139,115 244,115 49,0 96,-8 141,-25 45,-17 96,-45 154,-84l0 -155 -296 0zm1093 -1056l584 0 223 1007 223 -1007 581 0 0 1655 -362 0 0 -1262 -280 1262 -328 0 -279 -1262 0 1262 -362 0 0 -1655zm2925 1382l-501 0 -72 273 -452 0 539 -1655 484 0 537 1655 -463 0 -72 -273zm-94 -358l-156 -595 -157 595 313 0z"/>
  </g>
 </g>
</svg>